<svg width="26" height="26" viewBox="0 0 26 26" fill="none" xmlns="http://www.w3.org/2000/svg">
<path d="M17.0764 2.37458C16.7967 2.34551 16.5167 2.31949 16.2364 2.2965C15.8152 2.25887 15.3928 2.2375 14.9699 2.23242C13.6976 2.23242 12.6901 2.65027 11.9255 3.47573C11.1458 4.31681 10.8421 5.19396 10.8421 6.71942V10.3314C10.8421 10.4742 10.7854 10.6112 10.6844 10.7122C10.5834 10.8132 10.4464 10.8699 10.3036 10.8699H7.61133V14.1006H10.3036C10.4464 14.1006 10.5834 14.1574 10.6844 14.2584C10.7854 14.3593 10.8421 14.4963 10.8421 14.6391V23.793H14.0729V14.6391C14.0729 14.4963 14.1296 14.3593 14.2306 14.2584C14.3316 14.1574 14.4685 14.1006 14.6113 14.1006H17.3666L17.7705 10.8699H14.6113C14.4685 10.8699 14.3316 10.8132 14.2306 10.7122C14.1296 10.6112 14.0729 10.4742 14.0729 10.3314V8.01927C14.0729 7.25896 14.2252 6.65857 14.5553 6.22511C14.9344 5.72811 15.4529 5.51434 16.2795 5.51434H17.8421V2.45965C17.5871 2.42937 17.3318 2.40101 17.0764 2.37458Z" fill="white" stroke="white"/>
</svg>
