<svg width="28" height="25" viewBox="0 0 28 25" fill="none" xmlns="http://www.w3.org/2000/svg">
<path fill-rule="evenodd" clip-rule="evenodd" d="M20.992 1.53354C18.6609 0.244897 15.9742 -0.251258 13.3366 0.119834C10.709 0.489521 8.27201 1.69995 6.38992 3.56963L5.37837 4.50336L2.71309 1.83808C2.3703 1.49529 1.85477 1.39275 1.40689 1.57826C0.959016 1.76378 0.666992 2.20083 0.666992 2.68561V9.87707C0.666992 10.539 1.20361 11.0756 1.86557 11.0756H9.05704C9.54181 11.0756 9.97886 10.7836 10.1644 10.3357C10.3499 9.88787 10.2473 9.37234 9.90456 9.02955L7.49887 6.62386L8.44319 5.75219C8.45755 5.73893 8.47165 5.7254 8.48548 5.71159C9.91074 4.28874 11.7598 3.36764 13.7541 3.08705C15.7483 2.80647 17.7798 3.18161 19.5423 4.15596C21.3048 5.1303 22.7029 6.65106 23.526 8.48909C24.3491 10.3271 24.5525 12.3829 24.1056 14.3466C23.6588 16.3103 22.5858 18.0756 21.0484 19.3765C19.5111 20.6773 17.5926 21.4434 15.582 21.5591C13.5714 21.6748 11.5777 21.1339 9.90118 20.018C8.22471 18.9021 6.95631 17.2716 6.28709 15.3721C6.01214 14.5917 5.15658 14.1819 4.37615 14.4569C3.59573 14.7318 3.18596 15.5874 3.46092 16.3678C4.34601 18.88 6.02357 21.0365 8.24085 22.5124C10.4581 23.9883 13.095 24.7036 15.7541 24.5506C18.4133 24.3975 20.9507 23.3844 22.984 21.6639C25.0173 19.9434 26.4364 17.6086 27.0274 15.0115C27.6184 12.4143 27.3494 9.69542 26.2608 7.26447C25.1722 4.83351 23.3231 2.82219 20.992 1.53354Z" fill="white"/>
</svg>
